<svg width="24" height="24" viewBox="0 0 24 24" fill="none" xmlns="http://www.w3.org/2000/svg">
<g id="Icon 11">
<path id="Vector" d="M16.919 18.5699L12.0424 13.9052L7.37765 18.7818C6.86452 19.3182 6.0058 19.3373 5.46937 18.8241C4.93294 18.311 4.91387 17.4523 5.427 16.9159L10.0918 12.0392L5.21515 7.37447C4.67872 6.86135 4.65966 6.00262 5.17278 5.46619C5.68591 4.92977 6.54463 4.9107 7.08106 5.42382L11.9577 10.0886L16.6225 5.21198C17.1356 4.67555 17.9943 4.65648 18.5307 5.16961C19.0672 5.68274 19.0862 6.54146 18.5731 7.07789L13.9083 11.9545L18.7849 16.6193C19.3214 17.1324 19.3404 17.9911 18.8273 18.5276C18.3142 19.064 17.4555 19.0831 16.919 18.5699Z" fill="black"/>
</g>
</svg>
