<svg width="16" height="16" viewBox="0 0 16 16" fill="none" xmlns="http://www.w3.org/2000/svg">
<path fill-rule="evenodd" clip-rule="evenodd" d="M2.40039 5.91656C2.40039 5.20981 3.00805 4.63688 3.75763 4.63688H12.2432C12.9927 4.63688 13.6004 5.20981 13.6004 5.91656V12.3169C13.6004 13.0807 13.2786 13.8132 12.7057 14.3533C12.1329 14.8934 11.356 15.1969 10.5458 15.1969H5.45494C3.76796 15.1969 2.40039 13.9075 2.40039 12.3169V5.91656ZM3.75763 5.59688C3.57037 5.59688 3.41857 5.74 3.41857 5.91656V12.3169C3.41857 13.3773 4.33028 14.2369 5.45494 14.2369H10.5458C11.0859 14.2369 11.6039 14.0346 11.9858 13.6745C12.3677 13.3145 12.5822 12.8261 12.5822 12.3169V5.91656C12.5822 5.74 12.4304 5.59688 12.2432 5.59688H3.75763Z" fill="#FC2B2B"/>
<path fill-rule="evenodd" clip-rule="evenodd" d="M6.59326 0.796875L9.40752 0.796875C9.98576 0.797166 10.5145 1.10533 10.7731 1.59297L11.5102 2.98209C11.5892 3.13089 11.5808 3.30763 11.488 3.44917C11.3953 3.59071 11.2314 3.67688 11.0549 3.67688H4.94585C4.76938 3.67688 4.6055 3.59071 4.51275 3.44917C4.42 3.30763 4.4116 3.13089 4.49056 2.98209L5.22761 1.5932C5.48616 1.10555 6.01503 0.797166 6.59326 0.796875ZM6.59354 1.75688C6.40076 1.75697 6.22458 1.85972 6.13841 2.02232L5.76983 2.71688H10.231L9.86249 2.02254C9.77634 1.85997 9.60008 1.75701 9.40734 1.75688" fill="#FC2B2B"/>
<path fill-rule="evenodd" clip-rule="evenodd" d="M2.40039 3.19688C2.40039 2.93178 2.62832 2.71688 2.90948 2.71688H4.94585C5.22701 2.71688 5.45494 2.93178 5.45494 3.19688C5.45494 3.46197 5.22701 3.67688 4.94585 3.67688H2.90948C2.62832 3.67688 2.40039 3.46197 2.40039 3.19688ZM10.5458 3.19688C10.5458 2.93178 10.7738 2.71688 11.0549 2.71688H13.0913C13.3725 2.71688 13.6004 2.93178 13.6004 3.19688C13.6004 3.46197 13.3725 3.67688 13.0913 3.67688H11.0549C10.7738 3.67688 10.5458 3.46197 10.5458 3.19688ZM6.30607 7.83938C6.58724 7.83938 6.81516 8.05428 6.81516 8.31938V11.5191C6.81516 11.7842 6.58724 11.9991 6.30607 11.9991C6.02491 11.9991 5.79698 11.7842 5.79698 11.5191V8.31938C5.79698 8.05428 6.02491 7.83938 6.30607 7.83938ZM9.69471 7.83938C9.97587 7.83938 10.2038 8.05428 10.2038 8.31938V11.5191C10.2038 11.7842 9.97587 11.9991 9.69471 11.9991C9.41355 11.9991 9.18562 11.7842 9.18562 11.5191V8.31938C9.18562 8.05428 9.41355 7.83938 9.69471 7.83938Z" fill="#FC2B2B"/>
</svg>
